%TF.GenerationSoftware,KiCad,Pcbnew,7.0.1*%
%TF.CreationDate,2023-11-20T00:05:28-03:00*%
%TF.ProjectId,data_logger,64617461-5f6c-46f6-9767-65722e6b6963,0*%
%TF.SameCoordinates,Original*%
%TF.FileFunction,Paste,Top*%
%TF.FilePolarity,Positive*%
%FSLAX46Y46*%
G04 Gerber Fmt 4.6, Leading zero omitted, Abs format (unit mm)*
G04 Created by KiCad (PCBNEW 7.0.1) date 2023-11-20 00:05:28*
%MOMM*%
%LPD*%
G01*
G04 APERTURE LIST*
G04 Aperture macros list*
%AMRoundRect*
0 Rectangle with rounded corners*
0 $1 Rounding radius*
0 $2 $3 $4 $5 $6 $7 $8 $9 X,Y pos of 4 corners*
0 Add a 4 corners polygon primitive as box body*
4,1,4,$2,$3,$4,$5,$6,$7,$8,$9,$2,$3,0*
0 Add four circle primitives for the rounded corners*
1,1,$1+$1,$2,$3*
1,1,$1+$1,$4,$5*
1,1,$1+$1,$6,$7*
1,1,$1+$1,$8,$9*
0 Add four rect primitives between the rounded corners*
20,1,$1+$1,$2,$3,$4,$5,0*
20,1,$1+$1,$4,$5,$6,$7,0*
20,1,$1+$1,$6,$7,$8,$9,0*
20,1,$1+$1,$8,$9,$2,$3,0*%
%AMRotRect*
0 Rectangle, with rotation*
0 The origin of the aperture is its center*
0 $1 length*
0 $2 width*
0 $3 Rotation angle, in degrees counterclockwise*
0 Add horizontal line*
21,1,$1,$2,0,0,$3*%
G04 Aperture macros list end*
%ADD10R,0.180000X0.250000*%
%ADD11RoundRect,0.243750X-0.456250X0.243750X-0.456250X-0.243750X0.456250X-0.243750X0.456250X0.243750X0*%
%ADD12RoundRect,0.218750X-0.218750X-0.256250X0.218750X-0.256250X0.218750X0.256250X-0.218750X0.256250X0*%
%ADD13R,1.500000X0.900000*%
%ADD14R,1.000000X1.000000*%
%ADD15RoundRect,0.147500X-0.172500X0.147500X-0.172500X-0.147500X0.172500X-0.147500X0.172500X0.147500X0*%
%ADD16R,1.200000X0.900000*%
%ADD17RoundRect,0.225000X-0.225000X-0.250000X0.225000X-0.250000X0.225000X0.250000X-0.225000X0.250000X0*%
%ADD18RoundRect,0.175000X0.725000X0.175000X-0.725000X0.175000X-0.725000X-0.175000X0.725000X-0.175000X0*%
%ADD19RoundRect,0.200000X0.700000X0.200000X-0.700000X0.200000X-0.700000X-0.200000X0.700000X-0.200000X0*%
%ADD20RoundRect,0.147500X0.172500X-0.147500X0.172500X0.147500X-0.172500X0.147500X-0.172500X-0.147500X0*%
%ADD21RoundRect,0.243750X0.456250X-0.243750X0.456250X0.243750X-0.456250X0.243750X-0.456250X-0.243750X0*%
%ADD22RoundRect,0.200000X0.275000X-0.200000X0.275000X0.200000X-0.275000X0.200000X-0.275000X-0.200000X0*%
%ADD23RoundRect,0.225000X0.250000X-0.225000X0.250000X0.225000X-0.250000X0.225000X-0.250000X-0.225000X0*%
%ADD24RoundRect,0.125000X-0.225000X0.125000X-0.225000X-0.125000X0.225000X-0.125000X0.225000X0.125000X0*%
%ADD25R,0.700000X1.100000*%
%ADD26R,0.900000X0.930000*%
%ADD27R,1.050000X0.780000*%
%ADD28R,0.700000X3.330000*%
%ADD29R,1.140000X1.830000*%
%ADD30R,0.860000X2.800000*%
%ADD31RoundRect,0.225000X-0.250000X0.225000X-0.250000X-0.225000X0.250000X-0.225000X0.250000X0.225000X0*%
%ADD32RoundRect,0.225000X0.225000X0.250000X-0.225000X0.250000X-0.225000X-0.250000X0.225000X-0.250000X0*%
%ADD33RoundRect,0.147500X0.147500X0.172500X-0.147500X0.172500X-0.147500X-0.172500X0.147500X-0.172500X0*%
%ADD34RoundRect,0.050000X0.450000X0.300000X-0.450000X0.300000X-0.450000X-0.300000X0.450000X-0.300000X0*%
%ADD35RoundRect,0.050000X0.175000X0.100000X-0.175000X0.100000X-0.175000X-0.100000X0.175000X-0.100000X0*%
%ADD36R,3.800000X2.000000*%
%ADD37R,1.500000X2.000000*%
%ADD38RoundRect,0.243750X-0.243750X-0.456250X0.243750X-0.456250X0.243750X0.456250X-0.243750X0.456250X0*%
%ADD39RoundRect,0.200000X-0.275000X0.200000X-0.275000X-0.200000X0.275000X-0.200000X0.275000X0.200000X0*%
%ADD40RoundRect,0.147500X-0.147500X-0.172500X0.147500X-0.172500X0.147500X0.172500X-0.147500X0.172500X0*%
%ADD41R,0.700000X1.000000*%
%ADD42R,0.700000X0.600000*%
%ADD43R,0.600000X1.150000*%
%ADD44R,0.300000X1.150000*%
%ADD45R,1.000000X0.700000*%
%ADD46R,0.345000X0.230000*%
%ADD47RotRect,1.400000X1.200000X45.000000*%
%ADD48RoundRect,0.147500X0.017678X-0.226274X0.226274X-0.017678X-0.017678X0.226274X-0.226274X0.017678X0*%
%ADD49RoundRect,0.218750X0.256250X-0.218750X0.256250X0.218750X-0.256250X0.218750X-0.256250X-0.218750X0*%
%ADD50R,0.400000X0.900000*%
%ADD51R,1.700000X0.700000*%
G04 APERTURE END LIST*
D10*
%TO.C,FL1*%
X110720000Y-69960000D03*
X111105000Y-70210000D03*
X111490000Y-70210000D03*
X111490000Y-69710000D03*
X111105000Y-69710000D03*
%TD*%
D11*
%TO.C,R23*%
X125150000Y-108592500D03*
X125150000Y-110467500D03*
%TD*%
D12*
%TO.C,D7*%
X154658000Y-63638000D03*
X156233000Y-63638000D03*
%TD*%
D13*
%TO.C,D12*%
X101990000Y-93720000D03*
X101990000Y-97020000D03*
X106890000Y-97020000D03*
X106890000Y-93720000D03*
%TD*%
D14*
%TO.C,SW3*%
X89490000Y-103520000D03*
X89490000Y-107520000D03*
X87490000Y-103520000D03*
X87490000Y-107520000D03*
%TD*%
D15*
%TO.C,R22*%
X122290000Y-105990000D03*
X122290000Y-106960000D03*
%TD*%
D16*
%TO.C,D5*%
X111248000Y-121410000D03*
X111248000Y-124710000D03*
%TD*%
D17*
%TO.C,C12*%
X120574998Y-121350001D03*
X122124998Y-121350001D03*
%TD*%
D15*
%TO.C,R4*%
X127190000Y-69775000D03*
X127190000Y-70745000D03*
%TD*%
%TO.C,R13*%
X92517001Y-92495000D03*
X92517001Y-93465000D03*
%TD*%
D18*
%TO.C,U2*%
X123290000Y-77410000D03*
D19*
X123290000Y-76310000D03*
X123290000Y-75210000D03*
X123290000Y-74110000D03*
X123290000Y-73010000D03*
X123290000Y-71910000D03*
X123290000Y-70810000D03*
X123290000Y-69710000D03*
D18*
X123290000Y-68610000D03*
X113790000Y-68610000D03*
D19*
X113790000Y-69710000D03*
X113790000Y-70810000D03*
X113790000Y-71910000D03*
X113790000Y-73010000D03*
X113790000Y-74110000D03*
X113790000Y-75210000D03*
X113790000Y-76310000D03*
D18*
X113790000Y-77410000D03*
%TD*%
D17*
%TO.C,C9*%
X110873000Y-127060000D03*
X112423000Y-127060000D03*
%TD*%
D20*
%TO.C,R15*%
X92516999Y-90025001D03*
X92516999Y-89055001D03*
%TD*%
D13*
%TO.C,D13*%
X101990000Y-101920000D03*
X101990000Y-105220000D03*
X106890000Y-105220000D03*
X106890000Y-101920000D03*
%TD*%
D21*
%TO.C,R19*%
X120990000Y-87160000D03*
X120990000Y-85285000D03*
%TD*%
D22*
%TO.C,R7*%
X109310000Y-116310000D03*
X109310000Y-114660000D03*
%TD*%
D23*
%TO.C,C8*%
X92590000Y-113435000D03*
X92590000Y-111885000D03*
%TD*%
D24*
%TO.C,D1*%
X126090001Y-69997499D03*
X126090001Y-70747499D03*
%TD*%
D25*
%TO.C,J15*%
X135110000Y-94242500D03*
X134010000Y-94242500D03*
X132910000Y-94242500D03*
X131810000Y-94242500D03*
X130710000Y-94242500D03*
X129610000Y-94242500D03*
X128510000Y-94242500D03*
X127410000Y-94242500D03*
D26*
X136900000Y-81777500D03*
D27*
X132635000Y-81702500D03*
D28*
X139210000Y-82977500D03*
D29*
X138990000Y-94227500D03*
D30*
X126330000Y-93742500D03*
D28*
X126250000Y-82977500D03*
%TD*%
D31*
%TO.C,C11*%
X109310000Y-117785000D03*
X109310000Y-119335000D03*
%TD*%
D23*
%TO.C,C10*%
X102990000Y-113435000D03*
X102990000Y-111885000D03*
%TD*%
D32*
%TO.C,C4*%
X168665000Y-101180000D03*
X167115000Y-101180000D03*
%TD*%
D33*
%TO.C,L1*%
X107792000Y-70963033D03*
X106822000Y-70963033D03*
%TD*%
D14*
%TO.C,SW2*%
X89490000Y-89260000D03*
X89490000Y-93260000D03*
X87490000Y-89260000D03*
X87490000Y-93260000D03*
%TD*%
D20*
%TO.C,R10*%
X114910000Y-122257500D03*
X114910000Y-121287500D03*
%TD*%
D33*
%TO.C,FB2*%
X127390000Y-76310000D03*
X126420000Y-76310000D03*
%TD*%
D34*
%TO.C,U5*%
X111822501Y-115935000D03*
X111822501Y-115035000D03*
D35*
X112797501Y-116135000D03*
X112797501Y-115485000D03*
X112797501Y-114835000D03*
X110847501Y-114835000D03*
X110847501Y-115485000D03*
X110847501Y-116135000D03*
%TD*%
D13*
%TO.C,D11*%
X101990000Y-85520000D03*
X101990000Y-88820000D03*
X106890000Y-88820000D03*
X106890000Y-85520000D03*
%TD*%
D36*
%TO.C,U4*%
X97690000Y-118510000D03*
D37*
X99990000Y-112210000D03*
X97690000Y-112210000D03*
X95390000Y-112210000D03*
%TD*%
D16*
%TO.C,D4*%
X102990000Y-118310000D03*
X102990000Y-115010000D03*
%TD*%
D38*
%TO.C,R8*%
X110835000Y-118560000D03*
X112710000Y-118560000D03*
%TD*%
D15*
%TO.C,R20*%
X120890000Y-89090000D03*
X120890000Y-90060000D03*
%TD*%
D17*
%TO.C,C3*%
X188115000Y-96100000D03*
X189665000Y-96100000D03*
%TD*%
D15*
%TO.C,R18*%
X92516999Y-106754999D03*
X92516999Y-107724999D03*
%TD*%
D39*
%TO.C,R6*%
X109152000Y-125412000D03*
X109152000Y-127062000D03*
%TD*%
D32*
%TO.C,C5*%
X167790000Y-118960000D03*
X166240000Y-118960000D03*
%TD*%
D11*
%TO.C,R21*%
X122690000Y-108622500D03*
X122690000Y-110497500D03*
%TD*%
D40*
%TO.C,FB1*%
X126420000Y-75210000D03*
X127390000Y-75210000D03*
%TD*%
D14*
%TO.C,SW1*%
X179955001Y-67494002D03*
X175955001Y-67494002D03*
X179955001Y-65494002D03*
X175955001Y-65494002D03*
%TD*%
D12*
%TO.C,D10*%
X154658000Y-71408000D03*
X156233000Y-71408000D03*
%TD*%
D41*
%TO.C,D2*%
X107120000Y-122060000D03*
D42*
X107120000Y-123760000D03*
X109120000Y-123760000D03*
X109120000Y-121860000D03*
%TD*%
D43*
%TO.C,J10*%
X105190000Y-128970000D03*
X105990000Y-128970000D03*
D44*
X107140000Y-128970000D03*
X108140000Y-128970000D03*
X108640000Y-128970000D03*
X109640000Y-128970000D03*
D43*
X110790000Y-128970000D03*
X111590000Y-128970000D03*
X111590000Y-128970000D03*
X110790000Y-128970000D03*
D44*
X110140000Y-128970000D03*
X109140000Y-128970000D03*
X107640000Y-128970000D03*
X106640000Y-128970000D03*
D43*
X105990000Y-128970000D03*
X105190000Y-128970000D03*
%TD*%
D45*
%TO.C,U6*%
X120570000Y-117700000D03*
X120570000Y-118650000D03*
X120570000Y-119600000D03*
X122970000Y-119600000D03*
X122970000Y-117700000D03*
%TD*%
D20*
%TO.C,R3*%
X111690000Y-72245000D03*
X111690000Y-71275000D03*
%TD*%
D15*
%TO.C,R26*%
X131789999Y-118859999D03*
X131789999Y-119829999D03*
%TD*%
D32*
%TO.C,C13*%
X122124999Y-115949999D03*
X120574999Y-115949999D03*
%TD*%
D33*
%TO.C,C7*%
X105760000Y-70963033D03*
X104790000Y-70963033D03*
%TD*%
D15*
%TO.C,R24*%
X123950000Y-105935000D03*
X123950000Y-106905000D03*
%TD*%
D12*
%TO.C,D9*%
X154658000Y-68818000D03*
X156233000Y-68818000D03*
%TD*%
D39*
%TO.C,R5*%
X105342000Y-125475000D03*
X105342000Y-127125000D03*
%TD*%
D38*
%TO.C,R25*%
X131262499Y-113460001D03*
X133137499Y-113460001D03*
%TD*%
D46*
%TO.C,U3*%
X108910000Y-69960000D03*
X108910000Y-70460000D03*
X108910000Y-70960000D03*
X109590000Y-70960000D03*
X109590000Y-70460000D03*
X109590000Y-69960000D03*
%TD*%
D47*
%TO.C,Y1*%
X166313223Y-108649348D03*
X167868858Y-107093713D03*
X166666777Y-105891632D03*
X165111142Y-107447267D03*
%TD*%
D12*
%TO.C,D8*%
X154658000Y-66228000D03*
X156233000Y-66228000D03*
%TD*%
D40*
%TO.C,C6*%
X109705000Y-71860000D03*
X110675000Y-71860000D03*
%TD*%
D48*
%TO.C,C1*%
X166847053Y-110098241D03*
X167532947Y-109412347D03*
%TD*%
D20*
%TO.C,R17*%
X92516999Y-104284999D03*
X92516999Y-103314999D03*
%TD*%
D33*
%TO.C,R2*%
X176720004Y-69760000D03*
X175750004Y-69760000D03*
%TD*%
D49*
%TO.C,D6*%
X114910000Y-119960000D03*
X114910000Y-118385000D03*
%TD*%
D16*
%TO.C,D3*%
X92590000Y-115010000D03*
X92590000Y-118310000D03*
%TD*%
D21*
%TO.C,R9*%
X114510000Y-115297500D03*
X114510000Y-113422500D03*
%TD*%
D40*
%TO.C,R14*%
X151825000Y-68818000D03*
X152795000Y-68818000D03*
%TD*%
D12*
%TO.C,D14*%
X131790000Y-121160000D03*
X133365000Y-121160000D03*
%TD*%
D40*
%TO.C,R11*%
X151825000Y-63638000D03*
X152795000Y-63638000D03*
%TD*%
D50*
%TO.C,U7*%
X132440000Y-115541501D03*
X131790000Y-115541501D03*
X131140000Y-115541501D03*
X131140000Y-117641501D03*
X131790000Y-117641501D03*
X132440000Y-117641501D03*
%TD*%
D51*
%TO.C,BAT1*%
X122990000Y-66510000D03*
X122990000Y-65010000D03*
%TD*%
D40*
%TO.C,R12*%
X151825000Y-66228000D03*
X152795000Y-66228000D03*
%TD*%
%TO.C,R16*%
X151825000Y-71408000D03*
X152795000Y-71408000D03*
%TD*%
%TO.C,R1*%
X179190000Y-69760000D03*
X180160000Y-69760000D03*
%TD*%
D48*
%TO.C,C2*%
X165447053Y-105116315D03*
X166132947Y-104430421D03*
%TD*%
M02*
