%TF.GenerationSoftware,KiCad,Pcbnew,7.0.1*%
%TF.CreationDate,2023-11-20T00:05:28-03:00*%
%TF.ProjectId,data_logger,64617461-5f6c-46f6-9767-65722e6b6963,0*%
%TF.SameCoordinates,Original*%
%TF.FileFunction,Soldermask,Bot*%
%TF.FilePolarity,Negative*%
%FSLAX46Y46*%
G04 Gerber Fmt 4.6, Leading zero omitted, Abs format (unit mm)*
G04 Created by KiCad (PCBNEW 7.0.1) date 2023-11-20 00:05:28*
%MOMM*%
%LPD*%
G01*
G04 APERTURE LIST*
G04 Aperture macros list*
%AMRoundRect*
0 Rectangle with rounded corners*
0 $1 Rounding radius*
0 $2 $3 $4 $5 $6 $7 $8 $9 X,Y pos of 4 corners*
0 Add a 4 corners polygon primitive as box body*
4,1,4,$2,$3,$4,$5,$6,$7,$8,$9,$2,$3,0*
0 Add four circle primitives for the rounded corners*
1,1,$1+$1,$2,$3*
1,1,$1+$1,$4,$5*
1,1,$1+$1,$6,$7*
1,1,$1+$1,$8,$9*
0 Add four rect primitives between the rounded corners*
20,1,$1+$1,$2,$3,$4,$5,0*
20,1,$1+$1,$4,$5,$6,$7,0*
20,1,$1+$1,$6,$7,$8,$9,0*
20,1,$1+$1,$8,$9,$2,$3,0*%
G04 Aperture macros list end*
%ADD10R,1.700000X1.700000*%
%ADD11O,1.700000X1.700000*%
%ADD12C,2.200000*%
%ADD13RoundRect,0.425000X-0.425000X-0.425000X0.425000X-0.425000X0.425000X0.425000X-0.425000X0.425000X0*%
%ADD14C,0.650000*%
%ADD15O,1.000000X2.100000*%
%ADD16O,1.000000X1.800000*%
%ADD17RoundRect,0.650000X-0.650000X-0.650000X0.650000X-0.650000X0.650000X0.650000X-0.650000X0.650000X0*%
%ADD18R,1.600000X1.600000*%
%ADD19O,1.600000X1.600000*%
G04 APERTURE END LIST*
D10*
%TO.C,J13*%
X152550000Y-74560000D03*
D11*
X155090000Y-74560000D03*
%TD*%
D10*
%TO.C,J12*%
X110390000Y-88060000D03*
D11*
X110390000Y-85520000D03*
%TD*%
D10*
%TO.C,J3*%
X131590000Y-77360000D03*
D11*
X131590000Y-74820000D03*
X131590000Y-72280000D03*
%TD*%
D12*
%TO.C,H2*%
X201560000Y-133920000D03*
%TD*%
D10*
%TO.C,J1*%
X118390000Y-112060000D03*
%TD*%
%TO.C,J7*%
X140130000Y-74360000D03*
D11*
X137590000Y-74360000D03*
%TD*%
D12*
%TO.C,H1*%
X168070000Y-64850000D03*
%TD*%
D13*
%TO.C,AE1*%
X94347602Y-70963033D03*
%TD*%
D12*
%TO.C,H4*%
X86790000Y-84060000D03*
%TD*%
D10*
%TO.C,J2*%
X117690000Y-118560000D03*
%TD*%
%TO.C,J14*%
X94792001Y-100450001D03*
D11*
X92252001Y-100450001D03*
%TD*%
D12*
%TO.C,H3*%
X88022000Y-132650000D03*
%TD*%
D14*
%TO.C,J10*%
X105500000Y-130045000D03*
X111280000Y-130045000D03*
D15*
X104070000Y-129545000D03*
D16*
X104070000Y-133725000D03*
D15*
X112710000Y-129545000D03*
D16*
X112710000Y-133725000D03*
%TD*%
D10*
%TO.C,J5*%
X159674000Y-85680000D03*
D11*
X159674000Y-88220000D03*
X159674000Y-90760000D03*
X159674000Y-93300000D03*
X159674000Y-95840000D03*
X159674000Y-98380000D03*
X159674000Y-100920000D03*
X159674000Y-103460000D03*
X159674000Y-106000000D03*
X159674000Y-108540000D03*
X159674000Y-111080000D03*
X159674000Y-113620000D03*
X159674000Y-116160000D03*
X159674000Y-118700000D03*
X159674000Y-121240000D03*
X159674000Y-123780000D03*
%TD*%
D17*
%TO.C,J9*%
X96340000Y-122386000D03*
X96340000Y-128386000D03*
X101040000Y-125386000D03*
%TD*%
D18*
%TO.C,U1*%
X170566000Y-75780000D03*
D19*
X170566000Y-78320000D03*
X170566000Y-80860000D03*
X170566000Y-83400000D03*
X170566000Y-85940000D03*
X170566000Y-88480000D03*
X170566000Y-91020000D03*
X170566000Y-93560000D03*
X170566000Y-96100000D03*
X170566000Y-98640000D03*
X170566000Y-101180000D03*
X170566000Y-103720000D03*
X170566000Y-106260000D03*
X170566000Y-108800000D03*
X170566000Y-111340000D03*
X170566000Y-113880000D03*
X170566000Y-116420000D03*
X170566000Y-118960000D03*
X170566000Y-121500000D03*
X170566000Y-124040000D03*
X185806000Y-124040000D03*
X185806000Y-121500000D03*
X185806000Y-118960000D03*
X185806000Y-116420000D03*
X185806000Y-113880000D03*
X185806000Y-111340000D03*
X185806000Y-108800000D03*
X185806000Y-106260000D03*
X185806000Y-103720000D03*
X185806000Y-101180000D03*
X185806000Y-98640000D03*
X185806000Y-96100000D03*
X185806000Y-93560000D03*
X185806000Y-91020000D03*
X185806000Y-88480000D03*
X185806000Y-85940000D03*
X185806000Y-83400000D03*
X185806000Y-80860000D03*
X185806000Y-78320000D03*
X185806000Y-75780000D03*
%TD*%
D10*
%TO.C,J6*%
X196758000Y-85680000D03*
D11*
X196758000Y-88220000D03*
X196758000Y-90760000D03*
X196758000Y-93300000D03*
X196758000Y-95840000D03*
X196758000Y-98380000D03*
X196758000Y-100920000D03*
X196758000Y-103460000D03*
X196758000Y-106000000D03*
X196758000Y-108540000D03*
X196758000Y-111080000D03*
X196758000Y-113620000D03*
X196758000Y-116160000D03*
X196758000Y-118700000D03*
X196758000Y-121240000D03*
X196758000Y-123780000D03*
%TD*%
D10*
%TO.C,J8*%
X140130000Y-78060000D03*
D11*
X137590000Y-78060000D03*
%TD*%
D10*
%TO.C,J4*%
X194790000Y-65060000D03*
D11*
X194790000Y-67600000D03*
X194790000Y-70140000D03*
X194790000Y-72680000D03*
X194790000Y-75220000D03*
X194790000Y-77760000D03*
%TD*%
D10*
%TO.C,J11*%
X94792000Y-96330000D03*
D11*
X92252000Y-96330000D03*
%TD*%
M02*
