M48
; DRILL file {KiCad 7.0.1} date Mon Nov 20 00:05:40 2023
; FORMAT={-:-/ absolute / metric / decimal}
; #@! TF.CreationDate,2023-11-20T00:05:40-03:00
; #@! TF.GenerationSoftware,Kicad,Pcbnew,7.0.1
; #@! TF.FileFunction,Plated,1,2,PTH
FMAT,2
METRIC
; #@! TA.AperFunction,Plated,PTH,ComponentDrill
T1C0.200
; #@! TA.AperFunction,Plated,PTH,ViaDrill
T2C0.250
; #@! TA.AperFunction,Plated,PTH,ComponentDrill
T3C0.600
; #@! TA.AperFunction,Plated,PTH,ComponentDrill
T4C0.800
; #@! TA.AperFunction,Plated,PTH,ComponentDrill
T5C1.000
; #@! TA.AperFunction,Plated,PTH,ComponentDrill
T6C1.100
%
G90
G05
T1
X111.823Y-114.935
X111.823Y-116.035
T2
X85.613Y-63.15
X85.613Y-64.46
X85.613Y-65.77
X85.613Y-67.08
X85.613Y-68.39
X85.613Y-69.7
X85.613Y-72.21
X85.613Y-73.517
X85.613Y-74.823
X85.613Y-76.13
X85.613Y-77.437
X85.613Y-78.743
X85.613Y-80.05
X86.39Y-70.92
X87.205Y-63.15
X87.205Y-64.46
X87.205Y-65.77
X87.205Y-67.08
X87.205Y-68.39
X87.205Y-69.7
X87.205Y-72.21
X87.205Y-73.517
X87.205Y-74.823
X87.205Y-76.13
X87.205Y-77.437
X87.205Y-78.743
X87.205Y-80.05
X87.977Y-70.92
X88.49Y-91.26
X88.49Y-105.56
X88.796Y-63.15
X88.796Y-64.46
X88.796Y-65.77
X88.796Y-67.08
X88.796Y-68.39
X88.796Y-69.7
X88.796Y-72.21
X88.796Y-73.517
X88.796Y-74.823
X88.796Y-76.13
X88.796Y-77.437
X88.796Y-78.743
X88.796Y-80.05
X89.565Y-70.92
X90.388Y-63.15
X90.388Y-64.46
X90.388Y-65.77
X90.388Y-67.08
X90.388Y-68.39
X90.388Y-69.7
X90.388Y-72.21
X90.388Y-73.517
X90.388Y-74.823
X90.388Y-76.13
X90.388Y-77.437
X90.388Y-78.743
X90.388Y-80.05
X91.152Y-70.92
X91.98Y-63.15
X91.98Y-64.46
X91.98Y-65.77
X91.98Y-67.08
X91.98Y-68.39
X91.98Y-69.7
X91.98Y-72.21
X91.98Y-73.517
X91.98Y-74.823
X91.98Y-76.13
X91.98Y-77.437
X91.98Y-78.743
X91.98Y-80.05
X92.74Y-70.92
X93.572Y-63.15
X93.572Y-64.46
X93.572Y-65.77
X93.572Y-67.08
X93.572Y-68.39
X93.572Y-69.7
X93.572Y-72.21
X93.572Y-73.517
X93.572Y-74.823
X93.572Y-76.13
X93.572Y-77.437
X93.572Y-78.743
X93.572Y-80.05
X93.59Y-98.36
X95.164Y-63.15
X95.164Y-64.46
X95.164Y-65.77
X95.164Y-67.08
X95.164Y-68.39
X95.164Y-69.7
X95.164Y-72.21
X95.164Y-73.517
X95.164Y-74.823
X95.164Y-76.13
X95.164Y-77.437
X95.164Y-78.743
X95.164Y-80.05
X96.755Y-63.15
X96.755Y-64.46
X96.755Y-65.77
X96.755Y-67.08
X96.755Y-68.39
X96.755Y-69.7
X96.755Y-72.21
X96.755Y-73.517
X96.755Y-74.823
X96.755Y-76.13
X96.755Y-77.437
X96.755Y-78.743
X96.755Y-80.05
X98.347Y-63.15
X98.347Y-64.46
X98.347Y-65.77
X98.347Y-67.08
X98.347Y-68.39
X98.347Y-69.7
X98.347Y-72.21
X98.347Y-73.517
X98.347Y-74.823
X98.347Y-76.13
X98.347Y-77.437
X98.347Y-78.743
X98.347Y-80.05
X99.939Y-63.15
X99.939Y-64.46
X99.939Y-65.77
X99.939Y-67.08
X99.939Y-68.39
X99.939Y-69.7
X99.939Y-72.21
X99.939Y-73.517
X99.939Y-74.823
X99.939Y-76.13
X99.939Y-77.437
X99.939Y-78.743
X99.939Y-80.05
X101.531Y-63.15
X101.531Y-64.46
X101.531Y-65.77
X101.531Y-67.08
X101.531Y-68.39
X101.531Y-69.7
X101.531Y-72.21
X101.531Y-73.517
X101.531Y-74.823
X101.531Y-76.13
X101.531Y-77.437
X101.531Y-78.743
X101.531Y-80.05
X103.123Y-63.15
X103.123Y-64.46
X103.123Y-65.77
X103.123Y-67.08
X103.123Y-68.39
X103.123Y-69.7
X103.123Y-72.21
X103.123Y-73.517
X103.123Y-74.823
X103.123Y-76.13
X103.123Y-77.437
X103.123Y-78.743
X103.123Y-80.05
X104.26Y-69.93
X104.32Y-72.03
X104.39Y-87.16
X104.49Y-95.36
X104.49Y-103.96
X105.27Y-70.28
X105.27Y-71.65
X106.29Y-70.25
X106.29Y-71.64
X107.078Y-126.808
X107.31Y-70.29
X107.32Y-71.66
X107.94Y-122.84
X108.177Y-126.808
X108.24Y-70.26
X108.44Y-69.46
X108.44Y-71.52
X109.24Y-69.41
X109.89Y-123.76
X109.94Y-69.41
X109.99Y-126.46
X110.09Y-125.76
X110.49Y-69.11
X110.49Y-72.81
X111.09Y-75.66
X111.44Y-69.11
X112.45Y-70.28
X112.49Y-69.11
X117.99Y-71.56
X118.39Y-85.26
X118.39Y-85.86
X119.49Y-85.16
X119.99Y-95.46
X124.272Y-95.39
X124.69Y-70.81
X125.19Y-68.66
X125.29Y-70.81
X128.39Y-113.66
X129.19Y-71.66
X129.69Y-113.36
X150.47Y-129.86
X150.975Y-63.592
X150.975Y-66.233
X150.975Y-68.875
X150.975Y-71.517
X155.49Y-114.76
X156.83Y-107.28
X160.785Y-130.965
X161.79Y-129.96
X162.99Y-121.06
X162.99Y-121.86
X165.19Y-97.46
X171.43Y-130.95
X172.39Y-94.36
X172.58Y-102.5
X173.19Y-78.86
X173.19Y-95.26
X174.09Y-96.26
X174.99Y-104.86
X174.99Y-105.76
X174.99Y-106.56
X175.39Y-118.26
X175.79Y-70.86
X175.79Y-71.66
X176.24Y-99.71
X176.29Y-107.86
X177.13Y-126.67
X177.59Y-104.26
X178.19Y-117.66
X178.69Y-105.76
X179.54Y-117.087
X180.45Y-123.23
X180.59Y-107.26
X180.957Y-105.76
X181.78Y-112.56
X182.39Y-88.16
X182.476Y-107.964
X182.74Y-110.97
X183.29Y-106.66
X183.46Y-120.29
X183.6Y-104.15
X184.19Y-102.66
X184.3Y-100.35
X184.35Y-115.06
X184.65Y-112.77
T4
X170.566Y-75.78
X170.566Y-78.32
X170.566Y-80.86
X170.566Y-83.4
X170.566Y-85.94
X170.566Y-88.48
X170.566Y-91.02
X170.566Y-93.56
X170.566Y-96.1
X170.566Y-98.64
X170.566Y-101.18
X170.566Y-103.72
X170.566Y-106.26
X170.566Y-108.8
X170.566Y-111.34
X170.566Y-113.88
X170.566Y-116.42
X170.566Y-118.96
X170.566Y-121.5
X170.566Y-124.04
X185.806Y-75.78
X185.806Y-78.32
X185.806Y-80.86
X185.806Y-83.4
X185.806Y-85.94
X185.806Y-88.48
X185.806Y-91.02
X185.806Y-93.56
X185.806Y-96.1
X185.806Y-98.64
X185.806Y-101.18
X185.806Y-103.72
X185.806Y-106.26
X185.806Y-108.8
X185.806Y-111.34
X185.806Y-113.88
X185.806Y-116.42
X185.806Y-118.96
X185.806Y-121.5
X185.806Y-124.04
T5
X92.252Y-96.33
X92.252Y-100.45
X94.792Y-96.33
X94.792Y-100.45
X110.39Y-85.52
X110.39Y-88.06
X117.69Y-118.56
X118.39Y-112.06
X131.59Y-72.28
X131.59Y-74.82
X131.59Y-77.36
X137.59Y-74.36
X137.59Y-78.06
X140.13Y-74.36
X140.13Y-78.06
X152.55Y-74.56
X155.09Y-74.56
X159.674Y-85.68
X159.674Y-88.22
X159.674Y-90.76
X159.674Y-93.3
X159.674Y-95.84
X159.674Y-98.38
X159.674Y-100.92
X159.674Y-103.46
X159.674Y-106.0
X159.674Y-108.54
X159.674Y-111.08
X159.674Y-113.62
X159.674Y-116.16
X159.674Y-118.7
X159.674Y-121.24
X159.674Y-123.78
X194.79Y-65.06
X194.79Y-67.6
X194.79Y-70.14
X194.79Y-72.68
X194.79Y-75.22
X194.79Y-77.76
X196.758Y-85.68
X196.758Y-88.22
X196.758Y-90.76
X196.758Y-93.3
X196.758Y-95.84
X196.758Y-98.38
X196.758Y-100.92
X196.758Y-103.46
X196.758Y-106.0
X196.758Y-108.54
X196.758Y-111.08
X196.758Y-113.62
X196.758Y-116.16
X196.758Y-118.7
X196.758Y-121.24
X196.758Y-123.78
T6
X94.348Y-70.963
T3
G00X104.07Y-128.995
M15
G01X104.07Y-130.095
M16
G05
G00X104.07Y-133.325
M15
G01X104.07Y-134.125
M16
G05
G00X112.71Y-128.995
M15
G01X112.71Y-130.095
M16
G05
G00X112.71Y-133.325
M15
G01X112.71Y-134.125
M16
G05
T5
G00X96.04Y-122.386
M15
G01X96.64Y-122.386
M16
G05
G00X96.04Y-128.386
M15
G01X96.64Y-128.386
M16
G05
G00X101.04Y-125.086
M15
G01X101.04Y-125.686
M16
G05
T0
M30
